<?xml version="1.0" encoding="utf-8"?>
<!-- Generator: Adobe Illustrator 24.0.0, SVG Export Plug-In . SVG Version: 6.00 Build 0)  -->
<svg version="1.1" id="Layer_1" xmlns="http://www.w3.org/2000/svg" xmlns:xlink="http://www.w3.org/1999/xlink" x="0px" y="0px"
	 viewBox="0 0 300 50" style="enable-background:new 0 0 300 50;" xml:space="preserve">
<style type="text/css">
	.st0{fill:#8147AE;}
	.st1{fill:#444444;}
</style>
<path class="st0" d="M89.9,25.5c-0.1,9.5-6,17.9-14.7,21.3c-8.8,3.4-18.8,1-25.1-6.2c-2.5-2.8-4.8-5.6-8-7.8
	C36,28.7,30,28.7,24,33.2c-2,1.4-4,3.1-6.3,3.9c-4.7,1.7-9,0.6-12.5-3.1c-3.5-3.2-4.6-8.2-2.8-12.6c1.7-4.7,5.1-7.6,10.1-8.2
	c3.6-0.5,6.7,0.8,9.6,3c2,1.6,4.2,2.9,6.5,3.9c5.1,2.2,9.8,0.8,13.9-2.5c2.3-1.9,4.5-4,6.5-6.4C55.2,4.1,62.7,1,71.9,3.1
	c9.2,2,15,8,17.4,17.1c0.2,0.6,0.3,1.3,0.4,1.8C89.7,22,89.9,25.5,89.9,25.5z M67.2,14.1c-6.3-0.2-11.5,4.8-11.7,11.1
	s4.8,11.5,11.1,11.7s11.5-4.7,11.7-11c0.2-6.3-4.6-11.5-10.9-11.7C67.5,14.1,67.2,14.1,67.2,14.1z M108.1,27.6
	c-1.8-1-3.1-2.3-4.1-3.9c-1-1.7-1.5-3.5-1.5-5.6s0.5-3.9,1.5-5.6c1-1.7,2.4-3,4.1-3.9c1.8-1,3.7-1.4,5.9-1.4c2.2,0,4.2,0.5,5.9,1.4
	c1.8,1,3.1,2.3,4.1,3.9c1,1.7,1.5,3.5,1.5,5.6s-0.5,4-1.5,5.6c-1,1.6-2.4,3-4.1,3.9c-1.8,1-3.7,1.4-5.9,1.4
	C111.8,29.1,109.9,28.6,108.1,27.6z M117.8,24.6c1.1-0.6,2-1.5,2.7-2.7c0.6-1.1,1-2.4,1-3.9c0-1.4-0.3-2.7-1-3.9s-1.5-2-2.7-2.7
	s-2.4-1-3.9-1s-2.7,0.3-3.9,1s-2,1.5-2.7,2.7s-1,2.4-1,3.9c0,1.4,0.3,2.7,1,3.9c0.6,1.1,1.5,2,2.7,2.7s2.4,1,3.9,1
	S116.7,25.2,117.8,24.6z M142.7,13.3c1.3,0.7,2.3,1.7,3,2.9c0.7,1.3,1,2.7,1,4.3c0,1.7-0.3,3.1-1,4.4c-0.7,1.3-1.7,2.3-3,3
	c-1.3,0.7-2.7,1-4.3,1c-2.2,0-3.9-0.7-5.2-2.2v7.9h-3.9V12.4h3.6v2.2c0.6-0.8,1.4-1.4,2.3-1.8c1-0.4,1.9-0.6,3.1-0.6
	C140,12.3,141.4,12.6,142.7,13.3L142.7,13.3z M141.5,24.2c0.9-1,1.4-2.2,1.4-3.7c0-1.5-0.5-2.7-1.4-3.7c-0.9-1-2.1-1.4-3.5-1.4
	c-0.9,0-1.8,0.2-2.5,0.6c-0.7,0.4-1.3,1-1.8,1.8c-0.4,0.8-0.6,1.7-0.6,2.7c0,1,0.2,1.9,0.6,2.7c0.4,0.8,1,1.4,1.8,1.8
	c0.7,0.4,1.5,0.6,2.5,0.6C139.4,25.7,140.5,25.2,141.5,24.2z M165.6,21.8h-12.8c0.2,1.2,0.8,2.2,1.8,2.9s2.1,1,3.5,1
	c1.8,0,3.3-0.6,4.4-1.8l2,2.3c-0.7,0.9-1.7,1.5-2.8,2S159.3,29,158,29c-1.8,0-3.4-0.3-4.7-1c-1.4-0.7-2.4-1.7-3.1-3
	s-1.1-2.7-1.1-4.3c0-1.6,0.3-3.1,1-4.3c0.7-1.3,1.7-2.3,3-3s2.7-1,4.3-1s3,0.3,4.3,1c1.3,0.7,2.3,1.7,2.9,3c0.7,1.3,1,2.7,1,4.4
	C165.7,20.9,165.7,21.3,165.6,21.8L165.6,21.8z M154.3,16.4c-0.9,0.7-1.4,1.7-1.5,2.9h9.2c-0.2-1.2-0.6-2.2-1.5-2.9
	c-0.8-0.7-1.8-1.1-3.1-1.1C156.2,15.3,155.1,15.6,154.3,16.4L154.3,16.4z M183.5,14c1.2,1.2,1.8,3,1.8,5.4v9.3h-3.9v-8.8
	c0-1.4-0.3-2.5-1-3.2c-0.6-0.7-1.6-1-2.9-1c-1.4,0-2.5,0.4-3.3,1.3c-0.8,0.9-1.2,2.1-1.2,3.6v8.3h-3.9V12.4h3.6v2.1
	c0.6-0.7,1.4-1.3,2.4-1.7c1-0.4,2-0.6,3.2-0.6C180.6,12.3,182.3,12.8,183.5,14L183.5,14z"/>
<g>
	<path class="st1" d="M187.2,44.8h-1v-7.7h-2.7v-0.9h6.4v0.9h-2.7L187.2,44.8L187.2,44.8z M197.6,45c-1,0-1.7-0.3-2.3-0.9
		s-0.8-1.4-0.8-2.4c0-1,0.2-1.8,0.8-2.5c0.5-0.6,1.2-0.9,2.1-0.9c0.8,0,1.4,0.2,1.9,0.8c0.5,0.6,0.7,1.2,0.7,2.1v0.6h-4.4
		c0,0.7,0.2,1.4,0.6,1.7c0.4,0.4,0.9,0.6,1.5,0.6c0.7,0,1.4-0.2,2.1-0.4v0.9c-0.3,0.2-0.6,0.2-1,0.3C198.4,45,198.1,45,197.6,45
		L197.6,45z M197.4,39.1c-0.5,0-1,0.2-1.2,0.5c-0.3,0.3-0.5,0.8-0.6,1.4h3.4c0-0.6-0.2-1.1-0.4-1.4
		C198.3,39.3,197.9,39.1,197.4,39.1z M208.1,45c-1,0-1.7-0.3-2.2-0.9c-0.5-0.6-0.8-1.4-0.8-2.4c0-1,0.2-1.9,0.8-2.5
		c0.5-0.6,1.3-0.9,2.3-0.9c0.3,0,0.6,0,1,0.1c0.3,0.1,0.6,0.2,0.7,0.2l-0.3,0.8l-0.7-0.2c-0.2-0.1-0.5-0.1-0.6-0.1
		c-1.3,0-1.9,0.8-1.9,2.5c0,0.8,0.2,1.4,0.5,1.8c0.3,0.4,0.8,0.6,1.4,0.6c0.6,0,1.1-0.1,1.7-0.3v0.9C209.3,44.9,208.7,45,208.1,45
		L208.1,45z M219.5,44.8v-4.2c0-0.6-0.1-0.9-0.3-1.2c-0.2-0.3-0.6-0.4-1.1-0.4c-0.6,0-1.2,0.2-1.4,0.6c-0.3,0.4-0.5,1-0.5,1.8v3.4
		h-1v-9.2h1v2.7c0,0.3,0,0.6-0.1,0.8h0.1c0.2-0.3,0.5-0.6,0.8-0.7c0.3-0.2,0.7-0.2,1.2-0.2c0.8,0,1.4,0.2,1.8,0.6s0.6,1,0.6,1.8v4.2
		L219.5,44.8L219.5,44.8z M230.8,44.8v-4.2c0-0.6-0.1-0.9-0.3-1.2c-0.2-0.3-0.6-0.4-1.1-0.4c-0.6,0-1.2,0.2-1.4,0.6
		c-0.2,0.4-0.5,1-0.5,1.8v3.4h-1v-6.4h0.8l0.2,0.9h0.1c0.2-0.3,0.5-0.6,0.8-0.7c0.3-0.2,0.7-0.2,1.2-0.2c0.8,0,1.4,0.2,1.8,0.6
		s0.6,1,0.6,1.8v4.2L230.8,44.8L230.8,44.8z"/>
	<g>
		<path id="a" class="st1" d="M243.1,41.6c0,1-0.2,1.8-0.8,2.5c-0.6,0.6-1.4,0.9-2.2,0.9c-0.6,0-1.1-0.2-1.5-0.4
			c-0.5-0.2-0.8-0.6-1-1.1c-0.2-0.5-0.4-1.1-0.4-1.8c0-1,0.2-1.8,0.8-2.5c0.6-0.6,1.4-0.9,2.2-0.9c0.8,0,1.6,0.3,2.2,0.9
			C242.9,39.8,243.1,40.6,243.1,41.6L243.1,41.6z M238.2,41.6c0,0.8,0.2,1.4,0.5,1.8s0.8,0.6,1.4,0.6c0.6,0,1.1-0.2,1.4-0.6
			c0.3-0.4,0.5-1,0.5-1.8c0-0.8-0.2-1.4-0.5-1.8c-0.3-0.4-0.8-0.6-1.4-0.6c-0.6,0-1.1,0.2-1.4,0.6C238.4,40.2,238.2,40.8,238.2,41.6
			z"/>
	</g>
	<path class="st1" d="M249.7,44.8h-1v-9.2h1C249.7,35.7,249.7,44.8,249.7,44.8z"/>
	<g>
		<path id="a_1_" class="st1" d="M261.2,41.6c0,1-0.2,1.8-0.8,2.5c-0.6,0.6-1.4,0.9-2.2,0.9c-0.6,0-1.1-0.2-1.5-0.4
			c-0.5-0.2-0.8-0.6-1-1.1c-0.2-0.5-0.4-1.1-0.4-1.8c0-1,0.2-1.8,0.8-2.5c0.6-0.6,1.4-0.9,2.2-0.9c0.8,0,1.6,0.3,2.2,0.9
			C260.9,39.8,261.2,40.6,261.2,41.6L261.2,41.6z M256.2,41.6c0,0.8,0.2,1.4,0.5,1.8c0.3,0.4,0.8,0.6,1.4,0.6c0.6,0,1.1-0.2,1.4-0.6
			s0.5-1,0.5-1.8c0-0.8-0.2-1.4-0.5-1.8c-0.3-0.4-0.8-0.6-1.4-0.6c-0.6,0-1.1,0.2-1.4,0.6C256.4,40.2,256.2,40.8,256.2,41.6z"/>
	</g>
	<path class="st1" d="M272,38.4V39l-1.2,0.2c0.1,0.2,0.2,0.3,0.3,0.6c0.1,0.2,0.2,0.5,0.2,0.7c0,0.6-0.2,1.1-0.6,1.5
		c-0.4,0.4-1,0.6-1.8,0.6c-0.2,0-0.4,0-0.6-0.1c-0.4,0.2-0.6,0.5-0.6,0.8c0,0.2,0.1,0.3,0.2,0.4c0.2,0.1,0.4,0.2,0.7,0.2h1.1
		c0.7,0,1.2,0.2,1.6,0.4c0.4,0.3,0.6,0.7,0.6,1.3c0,0.7-0.3,1.3-0.9,1.6c-0.6,0.4-1.4,0.6-2.5,0.6c-0.8,0-1.5-0.2-1.9-0.5
		c-0.5-0.3-0.7-0.7-0.7-1.4c0-0.4,0.2-0.7,0.4-1s0.6-0.5,1-0.6c-0.2-0.1-0.3-0.2-0.4-0.3c-0.1-0.2-0.2-0.3-0.2-0.6s0.1-0.4,0.2-0.6
		c0.2-0.2,0.3-0.3,0.6-0.5c-0.3-0.2-0.6-0.4-0.8-0.7c-0.2-0.3-0.3-0.7-0.3-1.1c0-0.7,0.2-1.3,0.6-1.6c0.4-0.4,1-0.6,1.8-0.6
		c0.3,0,0.6,0,0.9,0.1L272,38.4L272,38.4z M266.9,46c0,0.3,0.2,0.6,0.4,0.8c0.2,0.2,0.7,0.2,1.3,0.2c0.8,0,1.4-0.2,1.8-0.4
		c0.4-0.2,0.6-0.6,0.6-1c0-0.3-0.1-0.6-0.3-0.7c-0.2-0.2-0.6-0.2-1.2-0.2h-1.2c-0.5,0-0.8,0.1-1,0.3C266.9,45.2,266.9,45.5,266.9,46
		L266.9,46z M267.3,40.5c0,0.5,0.2,0.8,0.4,1c0.2,0.2,0.6,0.3,1,0.3c1,0,1.4-0.5,1.4-1.4c0-1-0.5-1.4-1.4-1.4c-0.5,0-0.8,0.2-1,0.4
		C267.5,39.7,267.3,40,267.3,40.5z M277.1,36.6c0-0.2,0.1-0.4,0.2-0.5c0.1-0.1,0.2-0.2,0.4-0.2s0.3,0.1,0.4,0.2
		c0.1,0.1,0.2,0.2,0.2,0.5c0,0.2-0.1,0.4-0.2,0.5c-0.1,0.1-0.2,0.2-0.4,0.2s-0.3-0.1-0.4-0.2C277.2,37,277.1,36.9,277.1,36.6z
		 M278.1,44.8h-1v-6.4h1V44.8z M286.7,45c-1,0-1.7-0.3-2.3-0.9s-0.8-1.4-0.8-2.4c0-1,0.2-1.8,0.8-2.5c0.5-0.6,1.2-0.9,2.1-0.9
		c0.8,0,1.4,0.2,1.9,0.8s0.7,1.2,0.7,2.1v0.6h-4.4c0,0.7,0.2,1.4,0.6,1.7c0.4,0.4,0.9,0.6,1.5,0.6c0.7,0,1.4-0.2,2.1-0.4v0.9
		c-0.3,0.2-0.6,0.2-1,0.3C287.6,45,287.2,45,286.7,45z M286.5,39.1c-0.5,0-1,0.2-1.2,0.5c-0.3,0.3-0.5,0.8-0.6,1.4h3.4
		c0-0.6-0.2-1.1-0.4-1.4C287.4,39.3,287.1,39.1,286.5,39.1z M298.8,43.1c0,0.6-0.2,1-0.6,1.4c-0.4,0.3-1,0.5-1.8,0.5
		c-0.9,0-1.5-0.2-2-0.4v-0.9c0.3,0.2,0.6,0.2,1,0.4c0.3,0.1,0.7,0.2,1,0.2c0.5,0,0.9-0.1,1.2-0.2c0.2-0.2,0.4-0.4,0.4-0.7
		c0-0.2-0.1-0.5-0.3-0.6c-0.2-0.2-0.6-0.4-1.3-0.6l-1.3-0.6c-0.2-0.2-0.4-0.3-0.6-0.6c-0.2-0.2-0.2-0.5-0.2-0.7c0-0.6,0.2-1,0.6-1.2
		c0.4-0.3,1-0.5,1.8-0.5s1.4,0.2,2,0.4l-0.3,0.8c-0.6-0.2-1.2-0.4-1.8-0.4c-0.5,0-0.8,0.1-1,0.2s-0.3,0.3-0.3,0.6
		c0,0.2,0.1,0.3,0.2,0.4c0.1,0.2,0.2,0.2,0.4,0.3c0.2,0.1,0.6,0.2,1.1,0.5c0.8,0.2,1.3,0.6,1.5,0.8S298.8,42.7,298.8,43.1z"/>
</g>
<path class="st0" d="M196,27.8c-1.5-0.5-2.7-1.1-3.6-1.8l1.4-3.1c0.9,0.7,1.9,1.3,3.2,1.7c1.3,0.4,2.6,0.6,3.9,0.6
	c1.6,0,2.8-0.2,3.5-0.8c0.8-0.5,1.2-1.2,1.2-2c0-0.6-0.2-1.1-0.6-1.5c-0.4-0.4-1-0.7-1.7-1l-2.7-0.8l-3.9-1.1c-1-0.4-1.8-1-2.6-1.8
	c-0.7-0.8-1-1.9-1-3.4c0-1.2,0.3-2.3,1-3.2s1.6-1.8,2.9-2.3s2.9-0.9,4.7-0.9c1.3,0,2.6,0.2,3.9,0.5c1.3,0.3,2.3,0.8,3.3,1.4
	l-1.3,3.1c-1-0.6-1.9-1-2.9-1.3c-1-0.3-2-0.4-3-0.4c-1.6,0-2.7,0.2-3.5,0.8s-1.1,1.2-1.1,2.1c0,0.6,0.2,1.1,0.6,1.5
	c0.4,0.4,1,0.7,1.7,0.9l2.7,0.7l3.9,1.1c1,0.4,1.8,1,2.6,1.8c0.7,0.8,1,1.9,1,3.3c0,1.2-0.3,2.3-1,3.2s-1.6,1.7-2.9,2.3
	c-1.3,0.6-2.9,0.9-4.7,0.9C199.1,28.5,197.5,28.3,196,27.8L196,27.8z M215.9,27.3c-1.3-0.7-2.3-1.7-3.1-3c-0.8-1.3-1.1-2.7-1.1-4.3
	c0-1.6,0.4-3.1,1.1-4.3c0.7-1.3,1.8-2.3,3.1-3c1.3-0.7,2.8-1,4.4-1c1.7,0,3.1,0.3,4.5,1c1.3,0.7,2.3,1.7,3.1,3
	c0.7,1.3,1.1,2.7,1.1,4.3c0,1.6-0.4,3.1-1.1,4.3c-0.7,1.3-1.8,2.3-3.1,3c-1.3,0.7-2.8,1-4.5,1C218.8,28.4,217.2,28.1,215.9,27.3z
	 M223.8,23.8c0.9-1,1.4-2.2,1.4-3.7c0-1.5-0.5-2.7-1.4-3.7c-0.9-1-2.1-1.4-3.5-1.4c-1.4,0-2.6,0.5-3.5,1.4c-0.9,1-1.4,2.2-1.4,3.7
	c0,1.5,0.5,2.7,1.4,3.7c0.9,1,2.1,1.4,3.5,1.4C221.7,25.1,222.9,24.6,223.8,23.8z M248.5,11.8v16.3h-3.6v-2.1
	c-0.6,0.7-1.4,1.3-2.3,1.7c-0.9,0.4-1.9,0.6-3,0.6c-2.2,0-3.9-0.6-5.1-1.8c-1.3-1.2-1.8-3-1.8-5.4v-9.2h3.9v8.8c0,1.4,0.3,2.6,1,3.3
	s1.6,1,2.8,1c1.4,0,2.4-0.4,3.2-1.3c0.8-0.9,1.2-2.1,1.2-3.6v-8.2H248.5L248.5,11.8z M262.9,11.7v3.6c-0.3-0.1-0.6-0.1-0.9-0.1
	c-1.4,0-2.7,0.4-3.5,1.3c-0.8,0.9-1.3,2.1-1.3,3.8v7.9h-3.9V11.8h3.6v2.4C258.3,12.5,260.2,11.7,262.9,11.7z M269,27.3
	c-1.4-0.7-2.4-1.7-3.1-3c-0.7-1.3-1.1-2.7-1.1-4.3c0-1.6,0.4-3.1,1.1-4.3s1.8-2.3,3.1-3s2.9-1,4.6-1c1.6,0,3.1,0.3,4.3,1
	c1.2,0.6,2.1,1.6,2.7,2.8l-2.9,1.7c-0.5-0.7-1-1.3-1.8-1.7s-1.4-0.6-2.3-0.6c-1.4,0-2.6,0.5-3.5,1.4c-1,1-1.4,2.2-1.4,3.7
	s0.5,2.8,1.4,3.7c1,1,2.1,1.4,3.5,1.4c0.8,0,1.6-0.2,2.3-0.6c0.7-0.4,1.3-1,1.8-1.7l2.9,1.7c-0.6,1.2-1.5,2.2-2.7,2.8
	c-1.2,0.6-2.6,1-4.2,1C271.8,28.4,270.3,28,269,27.3z M298.8,21.3H286c0.2,1.2,0.8,2.2,1.8,2.9s2.1,1,3.5,1c1.8,0,3.3-0.6,4.4-1.8
	l2,2.3c-0.7,0.9-1.7,1.5-2.8,2s-2.4,0.6-3.8,0.6c-1.8,0-3.4-0.3-4.7-1c-1.4-0.7-2.4-1.7-3.1-3s-1.1-2.7-1.1-4.3c0-1.6,0.4-3.1,1-4.3
	c0.7-1.3,1.7-2.3,3-3s2.7-1,4.3-1c1.6,0,3,0.3,4.3,1c1.3,0.7,2.3,1.7,2.9,3c0.7,1.3,1,2.7,1,4.4C298.9,20.4,298.9,20.8,298.8,21.3z
	 M287.5,15.8c-0.9,0.7-1.4,1.7-1.5,2.9h9.2c-0.2-1.2-0.6-2.2-1.5-2.9c-0.8-0.7-1.8-1.1-3.1-1.1C289.4,14.7,288.4,15.1,287.5,15.8
	L287.5,15.8z"/>
</svg>
